M48
; DRILL file {KiCad 9.0.2} date 2025-06-02T22:29:25-0400
; FORMAT={-:-/ absolute / metric / decimal}
; #@! TF.CreationDate,2025-06-02T22:29:25-04:00
; #@! TF.GenerationSoftware,Kicad,Pcbnew,9.0.2
; #@! TF.FileFunction,Plated,1,2,PTH
FMAT,2
METRIC
; #@! TA.AperFunction,Plated,PTH,ViaDrill
T1C0.400
; #@! TA.AperFunction,Plated,PTH,ComponentDrill
T2C0.950
; #@! TA.AperFunction,Plated,PTH,ComponentDrill
T3C1.020
; #@! TA.AperFunction,Plated,PTH,ComponentDrill
T4C2.300
; #@! TA.AperFunction,Plated,PTH,ComponentDrill
T5C3.000
%
G90
G05
T1
X147.0Y-127.0
X182.0Y-129.0
X212.0Y-120.0
X221.0Y-121.0
T2
X131.36Y-86.5
X131.36Y-89.0
X131.36Y-91.0
X131.36Y-93.5
T3
X143.87Y-96.11
X143.87Y-113.89
X146.41Y-96.11
X146.41Y-113.89
X148.95Y-96.11
X148.95Y-113.89
X151.49Y-96.11
X151.49Y-113.89
X154.03Y-96.11
X154.03Y-113.89
X156.57Y-96.11
X156.57Y-113.89
X159.11Y-96.11
X159.11Y-113.89
X161.65Y-96.11
X161.65Y-113.89
X164.19Y-96.11
X164.19Y-113.89
X166.73Y-96.11
X166.73Y-113.89
X169.27Y-96.11
X169.27Y-113.89
X171.81Y-96.11
X171.81Y-113.89
X174.35Y-96.11
X174.35Y-113.89
X176.89Y-96.11
X176.89Y-113.89
X179.43Y-96.11
X179.43Y-113.89
X181.97Y-96.11
X181.97Y-113.89
X184.51Y-96.11
X184.51Y-113.89
X187.05Y-96.11
X187.05Y-113.89
X189.59Y-96.11
X189.59Y-113.89
X191.9Y-102.46
X191.9Y-105.0
X191.9Y-107.54
X192.13Y-96.11
X192.13Y-113.89
T4
X128.65Y-83.43
X128.65Y-96.57
T5
X139.1Y-146.7
X146.1Y-147.75
X168.6Y-146.2
X175.6Y-147.25
X194.6Y-159.7
X201.6Y-160.75
X211.6Y-213.7
X214.6Y-102.6
X218.6Y-214.75
X221.1Y-183.2
X221.6Y-103.65
X225.6Y-140.7
X228.1Y-184.25
X232.6Y-141.75
X245.6Y-102.6
X250.1Y-171.2
X252.6Y-103.65
X255.1Y-137.7
X257.1Y-172.25
X262.1Y-138.75
X279.6Y-167.7
X284.6Y-136.7
X286.6Y-168.75
X291.6Y-137.75
X309.1Y-168.2
X314.6Y-137.7
X316.1Y-169.25
X321.6Y-138.75
M30
