%TF.GenerationSoftware,KiCad,Pcbnew,8.0.5*%
%TF.CreationDate,2024-12-27T20:29:11-05:00*%
%TF.ProjectId,with_usb_wired_v1,77697468-5f75-4736-925f-77697265645f,v1.0.0*%
%TF.SameCoordinates,Original*%
%TF.FileFunction,Soldermask,Bot*%
%TF.FilePolarity,Negative*%
%FSLAX46Y46*%
G04 Gerber Fmt 4.6, Leading zero omitted, Abs format (unit mm)*
G04 Created by KiCad (PCBNEW 8.0.5) date 2024-12-27 20:29:11*
%MOMM*%
%LPD*%
G01*
G04 APERTURE LIST*
G04 Aperture macros list*
%AMRoundRect*
0 Rectangle with rounded corners*
0 $1 Rounding radius*
0 $2 $3 $4 $5 $6 $7 $8 $9 X,Y pos of 4 corners*
0 Add a 4 corners polygon primitive as box body*
4,1,4,$2,$3,$4,$5,$6,$7,$8,$9,$2,$3,0*
0 Add four circle primitives for the rounded corners*
1,1,$1+$1,$2,$3*
1,1,$1+$1,$4,$5*
1,1,$1+$1,$6,$7*
1,1,$1+$1,$8,$9*
0 Add four rect primitives between the rounded corners*
20,1,$1+$1,$2,$3,$4,$5,0*
20,1,$1+$1,$4,$5,$6,$7,0*
20,1,$1+$1,$6,$7,$8,$9,0*
20,1,$1+$1,$8,$9,$2,$3,0*%
G04 Aperture macros list end*
%ADD10RoundRect,0.050000X-0.750000X0.800000X-0.750000X-0.800000X0.750000X-0.800000X0.750000X0.800000X0*%
%ADD11C,1.700000*%
%ADD12C,3.100000*%
%ADD13C,1.801800*%
%ADD14C,3.529000*%
%ADD15RoundRect,0.540000X0.810000X0.810000X-0.810000X0.810000X-0.810000X-0.810000X0.810000X-0.810000X0*%
%ADD16C,4.100000*%
%ADD17O,1.900000X1.900000*%
%ADD18O,1.600000X1.600000*%
%ADD19O,1.800000X1.800000*%
%ADD20RoundRect,0.050000X0.850000X-0.850000X0.850000X0.850000X-0.850000X0.850000X-0.850000X-0.850000X0*%
G04 APERTURE END LIST*
D10*
%TO.C,REF\u002A\u002A*%
X131360000Y-86500000D03*
D11*
X131360000Y-89000000D03*
X131360000Y-91000000D03*
X131360000Y-93500000D03*
D12*
X128650000Y-83430000D03*
X128650000Y-96570000D03*
%TD*%
D13*
%TO.C,S11*%
X305500000Y-164000000D03*
D14*
X311000000Y-164000000D03*
D13*
X316500000Y-164000000D03*
D15*
X307300000Y-158100000D03*
D16*
X311000000Y-158100000D03*
X316000000Y-160200000D03*
D15*
X319700000Y-160200000D03*
%TD*%
D13*
%TO.C,S4*%
X208500000Y-209000000D03*
D14*
X214000000Y-209000000D03*
D13*
X219500000Y-209000000D03*
D15*
X210300000Y-203100000D03*
D16*
X214000000Y-203100000D03*
X219000000Y-205200000D03*
D15*
X222700000Y-205200000D03*
%TD*%
D13*
%TO.C,S7*%
X247500000Y-164000000D03*
D14*
X253000000Y-164000000D03*
D13*
X258500000Y-164000000D03*
D15*
X249300000Y-158100000D03*
D16*
X253000000Y-158100000D03*
X258000000Y-160200000D03*
D15*
X261700000Y-160200000D03*
%TD*%
D13*
%TO.C,S3*%
X191500000Y-155000000D03*
D14*
X197000000Y-155000000D03*
D13*
X202500000Y-155000000D03*
D15*
X193300000Y-149100000D03*
D16*
X197000000Y-149100000D03*
X202000000Y-151200000D03*
D15*
X205700000Y-151200000D03*
%TD*%
D13*
%TO.C,S10*%
X281500000Y-132000000D03*
D14*
X287000000Y-132000000D03*
D13*
X292500000Y-132000000D03*
D15*
X283300000Y-126100000D03*
D16*
X287000000Y-126100000D03*
X292000000Y-128200000D03*
D15*
X295700000Y-128200000D03*
%TD*%
D13*
%TO.C,S6*%
X225500000Y-144000000D03*
D14*
X231000000Y-144000000D03*
D13*
X236500000Y-144000000D03*
D15*
X227300000Y-138100000D03*
D16*
X231000000Y-138100000D03*
X236000000Y-140200000D03*
D15*
X239700000Y-140200000D03*
%TD*%
D13*
%TO.C,S9*%
X276500000Y-164000000D03*
D14*
X282000000Y-164000000D03*
D13*
X287500000Y-164000000D03*
D15*
X278300000Y-158100000D03*
D16*
X282000000Y-158100000D03*
X287000000Y-160200000D03*
D15*
X290700000Y-160200000D03*
%TD*%
D17*
%TO.C,REF\u002A\u002A*%
X144000000Y-107725000D03*
D18*
X147030000Y-107425000D03*
X147030000Y-102575000D03*
D17*
X144000000Y-102275000D03*
D19*
X143870000Y-113890000D03*
X146410000Y-113890000D03*
D20*
X148950000Y-113890000D03*
D19*
X151490000Y-113890000D03*
X154030000Y-113890000D03*
X156570000Y-113890000D03*
X159110000Y-113890000D03*
D20*
X161650000Y-113890000D03*
D19*
X164190000Y-113890000D03*
X166730000Y-113890000D03*
X169270000Y-113890000D03*
X171810000Y-113890000D03*
D20*
X174350000Y-113890000D03*
D19*
X176890000Y-113890000D03*
X179430000Y-113890000D03*
X181970000Y-113890000D03*
X184510000Y-113890000D03*
D20*
X187050000Y-113890000D03*
D19*
X189590000Y-113890000D03*
X192130000Y-113890000D03*
X192130000Y-96110000D03*
X189590000Y-96110000D03*
D20*
X187050000Y-96110000D03*
D19*
X184510000Y-96110000D03*
X181970000Y-96110000D03*
X179430000Y-96110000D03*
X176890000Y-96110000D03*
D20*
X174350000Y-96110000D03*
D19*
X171810000Y-96110000D03*
X169270000Y-96110000D03*
X166730000Y-96110000D03*
X164190000Y-96110000D03*
D20*
X161650000Y-96110000D03*
D19*
X159110000Y-96110000D03*
X156570000Y-96110000D03*
X154030000Y-96110000D03*
X151490000Y-96110000D03*
D20*
X148950000Y-96110000D03*
D19*
X146410000Y-96110000D03*
X143870000Y-96110000D03*
X191900000Y-107540000D03*
D20*
X191900000Y-105000000D03*
D19*
X191900000Y-102460000D03*
%TD*%
D13*
%TO.C,S2*%
X164500000Y-144000000D03*
D14*
X170000000Y-144000000D03*
D13*
X175500000Y-144000000D03*
D15*
X166300000Y-138100000D03*
D16*
X170000000Y-138100000D03*
X175000000Y-140200000D03*
D15*
X178700000Y-140200000D03*
%TD*%
D13*
%TO.C,S14*%
X242500000Y-97900000D03*
D14*
X248000000Y-97900000D03*
D13*
X253500000Y-97900000D03*
D15*
X244300000Y-92000000D03*
D16*
X248000000Y-92000000D03*
X253000000Y-94100000D03*
D15*
X256700000Y-94100000D03*
%TD*%
D13*
%TO.C,S12*%
X311500000Y-133000000D03*
D14*
X317000000Y-133000000D03*
D13*
X322500000Y-133000000D03*
D15*
X313300000Y-127100000D03*
D16*
X317000000Y-127100000D03*
X322000000Y-129200000D03*
D15*
X325700000Y-129200000D03*
%TD*%
D13*
%TO.C,S5*%
X219500000Y-176000000D03*
D14*
X225000000Y-176000000D03*
D13*
X230500000Y-176000000D03*
D15*
X221300000Y-170100000D03*
D16*
X225000000Y-170100000D03*
X230000000Y-172200000D03*
D15*
X233700000Y-172200000D03*
%TD*%
D13*
%TO.C,S13*%
X211500000Y-97900000D03*
D14*
X217000000Y-97900000D03*
D13*
X222500000Y-97900000D03*
D15*
X213300000Y-92000000D03*
D16*
X217000000Y-92000000D03*
X222000000Y-94100000D03*
D15*
X225700000Y-94100000D03*
%TD*%
D13*
%TO.C,S8*%
X252500000Y-132000000D03*
D14*
X258000000Y-132000000D03*
D13*
X263500000Y-132000000D03*
D15*
X254300000Y-126100000D03*
D16*
X258000000Y-126100000D03*
X263000000Y-128200000D03*
D15*
X266700000Y-128200000D03*
%TD*%
D13*
%TO.C,S1*%
X135431165Y-144107445D03*
D14*
X140931165Y-144107445D03*
D13*
X146431165Y-144107445D03*
D15*
X137231165Y-138207445D03*
D16*
X140931165Y-138207445D03*
X145931165Y-140307445D03*
D15*
X149631165Y-140307445D03*
%TD*%
M02*
