%TF.GenerationSoftware,KiCad,Pcbnew,8.0.5*%
%TF.CreationDate,2024-12-27T20:29:08-05:00*%
%TF.ProjectId,with_usb_wired_v1,77697468-5f75-4736-925f-77697265645f,v1.0.0*%
%TF.SameCoordinates,Original*%
%TF.FileFunction,Plated,1,2,PTH,Drill*%
%TF.FilePolarity,Positive*%
%FSLAX46Y46*%
G04 Gerber Fmt 4.6, Leading zero omitted, Abs format (unit mm)*
G04 Created by KiCad (PCBNEW 8.0.5) date 2024-12-27 20:29:08*
%MOMM*%
%LPD*%
G01*
G04 APERTURE LIST*
%TA.AperFunction,ViaDrill*%
%ADD10C,0.400000*%
%TD*%
%TA.AperFunction,ComponentDrill*%
%ADD11C,0.950000*%
%TD*%
%TA.AperFunction,ComponentDrill*%
%ADD12C,1.020000*%
%TD*%
%TA.AperFunction,ComponentDrill*%
%ADD13C,2.300000*%
%TD*%
%TA.AperFunction,ComponentDrill*%
%ADD14C,3.000000*%
%TD*%
G04 APERTURE END LIST*
D10*
X147000000Y-127000000D03*
X182000000Y-129000000D03*
X212000000Y-120000000D03*
X221000000Y-121000000D03*
D11*
%TO.C,REF\u002A\u002A*%
X131360000Y-86500000D03*
X131360000Y-89000000D03*
X131360000Y-91000000D03*
X131360000Y-93500000D03*
D12*
X143870000Y-96110000D03*
X143870000Y-113890000D03*
X146410000Y-96110000D03*
X146410000Y-113890000D03*
X148950000Y-96110000D03*
X148950000Y-113890000D03*
X151490000Y-96110000D03*
X151490000Y-113890000D03*
X154030000Y-96110000D03*
X154030000Y-113890000D03*
X156570000Y-96110000D03*
X156570000Y-113890000D03*
X159110000Y-96110000D03*
X159110000Y-113890000D03*
X161650000Y-96110000D03*
X161650000Y-113890000D03*
X164190000Y-96110000D03*
X164190000Y-113890000D03*
X166730000Y-96110000D03*
X166730000Y-113890000D03*
X169270000Y-96110000D03*
X169270000Y-113890000D03*
X171810000Y-96110000D03*
X171810000Y-113890000D03*
X174350000Y-96110000D03*
X174350000Y-113890000D03*
X176890000Y-96110000D03*
X176890000Y-113890000D03*
X179430000Y-96110000D03*
X179430000Y-113890000D03*
X181970000Y-96110000D03*
X181970000Y-113890000D03*
X184510000Y-96110000D03*
X184510000Y-113890000D03*
X187050000Y-96110000D03*
X187050000Y-113890000D03*
X189590000Y-96110000D03*
X189590000Y-113890000D03*
X191900000Y-102460000D03*
X191900000Y-105000000D03*
X191900000Y-107540000D03*
X192130000Y-96110000D03*
X192130000Y-113890000D03*
D13*
X128650000Y-83430000D03*
X128650000Y-96570000D03*
D14*
%TO.C,S1*%
X140931165Y-138207445D03*
X145931165Y-140307445D03*
%TO.C,S2*%
X170000000Y-138100000D03*
X175000000Y-140200000D03*
%TO.C,S3*%
X197000000Y-149100000D03*
X202000000Y-151200000D03*
%TO.C,S4*%
X214000000Y-203100000D03*
%TO.C,S13*%
X217000000Y-92000000D03*
%TO.C,S4*%
X219000000Y-205200000D03*
%TO.C,S13*%
X222000000Y-94100000D03*
%TO.C,S5*%
X225000000Y-170100000D03*
X230000000Y-172200000D03*
%TO.C,S6*%
X231000000Y-138100000D03*
X236000000Y-140200000D03*
%TO.C,S14*%
X248000000Y-92000000D03*
X253000000Y-94100000D03*
%TO.C,S7*%
X253000000Y-158100000D03*
%TO.C,S8*%
X258000000Y-126100000D03*
%TO.C,S7*%
X258000000Y-160200000D03*
%TO.C,S8*%
X263000000Y-128200000D03*
%TO.C,S9*%
X282000000Y-158100000D03*
%TO.C,S10*%
X287000000Y-126100000D03*
%TO.C,S9*%
X287000000Y-160200000D03*
%TO.C,S10*%
X292000000Y-128200000D03*
%TO.C,S11*%
X311000000Y-158100000D03*
X316000000Y-160200000D03*
%TO.C,S12*%
X317000000Y-127100000D03*
X322000000Y-129200000D03*
M02*
