%TF.GenerationSoftware,KiCad,Pcbnew,8.0.5*%
%TF.CreationDate,2024-12-27T20:29:11-05:00*%
%TF.ProjectId,with_usb_wired_v1,77697468-5f75-4736-925f-77697265645f,v1.0.0*%
%TF.SameCoordinates,Original*%
%TF.FileFunction,Soldermask,Top*%
%TF.FilePolarity,Negative*%
%FSLAX46Y46*%
G04 Gerber Fmt 4.6, Leading zero omitted, Abs format (unit mm)*
G04 Created by KiCad (PCBNEW 8.0.5) date 2024-12-27 20:29:11*
%MOMM*%
%LPD*%
G01*
G04 APERTURE LIST*
G04 Aperture macros list*
%AMRoundRect*
0 Rectangle with rounded corners*
0 $1 Rounding radius*
0 $2 $3 $4 $5 $6 $7 $8 $9 X,Y pos of 4 corners*
0 Add a 4 corners polygon primitive as box body*
4,1,4,$2,$3,$4,$5,$6,$7,$8,$9,$2,$3,0*
0 Add four circle primitives for the rounded corners*
1,1,$1+$1,$2,$3*
1,1,$1+$1,$4,$5*
1,1,$1+$1,$6,$7*
1,1,$1+$1,$8,$9*
0 Add four rect primitives between the rounded corners*
20,1,$1+$1,$2,$3,$4,$5,0*
20,1,$1+$1,$4,$5,$6,$7,0*
20,1,$1+$1,$6,$7,$8,$9,0*
20,1,$1+$1,$8,$9,$2,$3,0*%
G04 Aperture macros list end*
%ADD10RoundRect,0.050000X-0.750000X0.800000X-0.750000X-0.800000X0.750000X-0.800000X0.750000X0.800000X0*%
%ADD11C,1.700000*%
%ADD12C,3.100000*%
%ADD13C,1.801800*%
%ADD14C,3.529000*%
%ADD15O,1.900000X1.900000*%
%ADD16O,1.600000X1.600000*%
%ADD17O,1.800000X1.800000*%
%ADD18RoundRect,0.050000X0.850000X-1.750000X0.850000X1.750000X-0.850000X1.750000X-0.850000X-1.750000X0*%
%ADD19RoundRect,0.050000X0.850000X-0.850000X0.850000X0.850000X-0.850000X0.850000X-0.850000X-0.850000X0*%
%ADD20RoundRect,0.050000X1.750000X0.850000X-1.750000X0.850000X-1.750000X-0.850000X1.750000X-0.850000X0*%
G04 APERTURE END LIST*
D10*
%TO.C,REF\u002A\u002A*%
X131360000Y-86500000D03*
D11*
X131360000Y-89000000D03*
X131360000Y-91000000D03*
X131360000Y-93500000D03*
D12*
X128650000Y-83430000D03*
X128650000Y-96570000D03*
%TD*%
D13*
%TO.C,S11*%
X305500000Y-164000000D03*
D14*
X311000000Y-164000000D03*
D13*
X316500000Y-164000000D03*
%TD*%
%TO.C,S4*%
X208500000Y-209000000D03*
D14*
X214000000Y-209000000D03*
D13*
X219500000Y-209000000D03*
%TD*%
%TO.C,S7*%
X247500000Y-164000000D03*
D14*
X253000000Y-164000000D03*
D13*
X258500000Y-164000000D03*
%TD*%
%TO.C,S3*%
X191500000Y-155000000D03*
D14*
X197000000Y-155000000D03*
D13*
X202500000Y-155000000D03*
%TD*%
%TO.C,S10*%
X281500000Y-132000000D03*
D14*
X287000000Y-132000000D03*
D13*
X292500000Y-132000000D03*
%TD*%
%TO.C,S6*%
X225500000Y-144000000D03*
D14*
X231000000Y-144000000D03*
D13*
X236500000Y-144000000D03*
%TD*%
%TO.C,S9*%
X276500000Y-164000000D03*
D14*
X282000000Y-164000000D03*
D13*
X287500000Y-164000000D03*
%TD*%
D15*
%TO.C,REF\u002A\u002A*%
X144000000Y-107725000D03*
D16*
X147030000Y-107425000D03*
X147030000Y-102575000D03*
D15*
X144000000Y-102275000D03*
D17*
X143870000Y-113890000D03*
D18*
X143870000Y-114790000D03*
D17*
X146410000Y-113890000D03*
D18*
X146410000Y-114790000D03*
D19*
X148950000Y-113890000D03*
D18*
X148950000Y-114790000D03*
D17*
X151490000Y-113890000D03*
D18*
X151490000Y-114790000D03*
D17*
X154030000Y-113890000D03*
D18*
X154030000Y-114790000D03*
D17*
X156570000Y-113890000D03*
D18*
X156570000Y-114790000D03*
D17*
X159110000Y-113890000D03*
D18*
X159110000Y-114790000D03*
D19*
X161650000Y-113890000D03*
D18*
X161650000Y-114790000D03*
D17*
X164190000Y-113890000D03*
D18*
X164190000Y-114790000D03*
D17*
X166730000Y-113890000D03*
D18*
X166730000Y-114790000D03*
D17*
X169270000Y-113890000D03*
D18*
X169270000Y-114790000D03*
D17*
X171810000Y-113890000D03*
D18*
X171810000Y-114790000D03*
D19*
X174350000Y-113890000D03*
D18*
X174350000Y-114790000D03*
D17*
X176890000Y-113890000D03*
D18*
X176890000Y-114790000D03*
D17*
X179430000Y-113890000D03*
D18*
X179430000Y-114790000D03*
D17*
X181970000Y-113890000D03*
D18*
X181970000Y-114790000D03*
D17*
X184510000Y-113890000D03*
D18*
X184510000Y-114790000D03*
D19*
X187050000Y-113890000D03*
D18*
X187050000Y-114790000D03*
D17*
X189590000Y-113890000D03*
D18*
X189590000Y-114790000D03*
D17*
X192130000Y-113890000D03*
D18*
X192130000Y-114790000D03*
D17*
X192130000Y-96110000D03*
D18*
X192130000Y-95210000D03*
D17*
X189590000Y-96110000D03*
D18*
X189590000Y-95210000D03*
D19*
X187050000Y-96110000D03*
D18*
X187050000Y-95210000D03*
D17*
X184510000Y-96110000D03*
D18*
X184510000Y-95210000D03*
D17*
X181970000Y-96110000D03*
D18*
X181970000Y-95210000D03*
D17*
X179430000Y-96110000D03*
D18*
X179430000Y-95210000D03*
D17*
X176890000Y-96110000D03*
D18*
X176890000Y-95210000D03*
D19*
X174350000Y-96110000D03*
D18*
X174350000Y-95210000D03*
D17*
X171810000Y-96110000D03*
D18*
X171810000Y-95210000D03*
D17*
X169270000Y-96110000D03*
D18*
X169270000Y-95210000D03*
D17*
X166730000Y-96110000D03*
D18*
X166730000Y-95210000D03*
D17*
X164190000Y-96110000D03*
D18*
X164190000Y-95210000D03*
D19*
X161650000Y-96110000D03*
D18*
X161650000Y-95210000D03*
D17*
X159110000Y-96110000D03*
D18*
X159110000Y-95210000D03*
D17*
X156570000Y-96110000D03*
D18*
X156570000Y-95210000D03*
D17*
X154030000Y-96110000D03*
D18*
X154030000Y-95210000D03*
D17*
X151490000Y-96110000D03*
D18*
X151490000Y-95210000D03*
D19*
X148950000Y-96110000D03*
D18*
X148950000Y-95210000D03*
D17*
X146410000Y-96110000D03*
D18*
X146410000Y-95210000D03*
D17*
X143870000Y-96110000D03*
D18*
X143870000Y-95210000D03*
D17*
X191900000Y-107540000D03*
D20*
X192800000Y-107540000D03*
D19*
X191900000Y-105000000D03*
D20*
X192800000Y-105000000D03*
D17*
X191900000Y-102460000D03*
D20*
X192800000Y-102460000D03*
%TD*%
D13*
%TO.C,S2*%
X164500000Y-144000000D03*
D14*
X170000000Y-144000000D03*
D13*
X175500000Y-144000000D03*
%TD*%
%TO.C,S14*%
X242500000Y-97900000D03*
D14*
X248000000Y-97900000D03*
D13*
X253500000Y-97900000D03*
%TD*%
%TO.C,S12*%
X311500000Y-133000000D03*
D14*
X317000000Y-133000000D03*
D13*
X322500000Y-133000000D03*
%TD*%
%TO.C,S5*%
X219500000Y-176000000D03*
D14*
X225000000Y-176000000D03*
D13*
X230500000Y-176000000D03*
%TD*%
%TO.C,S13*%
X211500000Y-97900000D03*
D14*
X217000000Y-97900000D03*
D13*
X222500000Y-97900000D03*
%TD*%
%TO.C,S8*%
X252500000Y-132000000D03*
D14*
X258000000Y-132000000D03*
D13*
X263500000Y-132000000D03*
%TD*%
%TO.C,S1*%
X135431165Y-144107445D03*
D14*
X140931165Y-144107445D03*
D13*
X146431165Y-144107445D03*
%TD*%
M02*
